# xmcd
#
# Track frame offsets: 
#        150
#        35121
#        53606
#        78136
#        132796
#        157929
#        200501
#        224765
#
# Disc length: 3608 seconds
#
# Revision: 0
# Processed by: cddbd v1.5.1PL0 Copyright (c) Steve Scherf et al.
# Submitted via: ExactAudioCopy v0.95a4
#
DISCID=690e1608
DTITLE=Cornbread Harris - Live at Nikki's
DYEAR=1900
DGENRE=Blues
TTITLE0=Cornbread (Cornbread Harris)
TTITLE1=C-Jam Blues (Duke Ellington)
TTITLE2=Don't Talk 'Bout Me (Bee Palmer)
TTITLE3=Calypso Blues (Nat King Cole-Johnny Mercer)
TTITLE4=Satin Doll (Duke Ellington)
TTITLE5=Ain't Nobodys Business (Everett Robbins)
TTITLE6=Just a Dream (Big Bill Broonzy)
TTITLE7=Did You Ever (Jimmy Rushing)
EXTD=
EXTT0=
EXTT1=
EXTT2=
EXTT3=
EXTT4=
EXTT5=
EXTT6=
EXTT7=
PLAYORDER=
